<?xml version="1.0" encoding="UTF-8" standalone="no"?>
<svg width="86px" height="86px" viewBox="0 0 86 86" version="1.1" xmlns="http://www.w3.org/2000/svg" xmlns:xlink="http://www.w3.org/1999/xlink">
    <!-- Generator: Sketch 46.2 (44496) - http://www.bohemiancoding.com/sketch -->
    <title>Group 4</title>
    <desc>Created with Sketch.</desc>
    <defs></defs>
    <g id="Page-1" stroke="none" stroke-width="1" fill="none" fill-rule="evenodd">
        <g id="Artboard" transform="translate(-825.000000, -708.000000)">
            <g id="Group-4" transform="translate(825.000000, 708.000000)">
                <circle id="Oval" fill="#EAD2AC" cx="43" cy="43" r="43"></circle>
                <path d="M44.3765614,85.4968578 C44.1718402,85.4998716 43.9628966,85.5007054 43.75,85.499411 C43.5371034,85.5007054 43.3281598,85.4998716 43.1234386,85.4968578 C33.4960425,85.3551277 15.8296125,80.1333529 15.5402027,75.6245047 C15.250793,71.1156565 16.4830454,65.1160669 20.5698276,62.7882914 C23.1955254,61.2927297 27.7594915,59.3632992 34.2617261,57 C36.7718424,58.7832862 39.8193982,59.7183913 43.3651527,59.7790775 L44.1348473,59.7790775 C47.6806018,59.7183913 50.7281576,58.7832862 53.2382739,57 C59.7405085,59.3632992 64.3044746,61.2927297 66.9301724,62.7882914 C71.0169546,65.1160669 72.249207,71.1156565 71.9597973,75.6245047 C71.6703875,80.1333529 54.0039575,85.3551277 44.3765614,85.4968578 Z M43.270544,56.5 C39.1959623,56.4308224 35.9001403,55.0057648 33.4804228,52.2801691 C28.1264503,46.2755573 29.0164613,35.981937 29.1138063,34.9996157 C29.4614668,27.5699462 33.0215109,24.0418909 35.9418596,22.395465 C38.8483018,20.7490392 41.8799018,20.5 43.4235147,20.5 L43.5069532,20.5 C43.5208596,20.5 43.5486725,20.5 43.5625789,20.5 L43.6599239,20.5 C46.4690211,20.555342 48.9860835,21.2194466 51.141579,22.4508071 C54.0341148,24.0972329 57.5385332,27.6252882 57.8861937,34.9996157 C57.9835387,35.981937 58.8735497,46.2755573 53.5195772,52.2801691 C51.0859533,55.0057648 47.7901312,56.4308224 43.7155495,56.5 C43.6738303,56.5 43.6182046,56.5 43.5764853,56.5 C43.5486725,56.5 43.5208596,56.5 43.4930468,56.5 C43.4096083,56.5 43.3400761,56.5 43.270544,56.5 Z" id="Combined-Shape" fill="#FAEFDC"></path>
            </g>
        </g>
    </g>
</svg>